# xmcd CD database file
#
# Track frame offsets:
#	150
#	614
#	12413
#	29276
#	51991
#	67829
#	93407
#	102886
#	119690
#	130021
#	147853
#	194250
#	210450
#
# Disc length: 3027 seconds
#
# Revision: 0
# Processed by: cddbd v1.5.1PL0 Copyright (c) Steve Scherf et al.
# Submitted via: CDex 1.51
#
DISCID=ad0bd10d
DTITLE=Johannes Tonio Kreusch, Markus Stockhausen - Panta Rhei
DYEAR=2003
DGENRE=Jazz
TTITLE0=Vinyl Intro
TTITLE1=Blossom
TTITLE2=Young
TTITLE3=En Route
TTITLE4=Fly!
TTITLE5=Highlands
TTITLE6=Flowing
TTITLE7=Invocacion
TTITLE8=Tender
TTITLE9=Virtual Union
TTITLE10=Soulmate
TTITLE11=Prelude to Silence
TTITLE12=Arjuna
EXTD=YEAR: 2003
EXTT0=
EXTT1=
EXTT2=
EXTT3=
EXTT4=
EXTT5=
EXTT6=
EXTT7=
EXTT8=
EXTT9=
EXTT10=
EXTT11=
EXTT12=
PLAYORDER=
